<?xml version="1.0" encoding="utf-8"?>
<!-- Generator: Adobe Illustrator 25.2.1, SVG Export Plug-In . SVG Version: 6.00 Build 0)  -->
<svg version="1.1" id="Layer_1" xmlns="http://www.w3.org/2000/svg" xmlns:xlink="http://www.w3.org/1999/xlink" x="0px" y="0px"
	 viewBox="0 0 178.3 35" style="enable-background:new 0 0 178.3 35;" xml:space="preserve">
<style type="text/css">
	.st0{fill:#7D5726;}
</style>
<path class="st0" d="M0.3,23.8l2.3-0.4V2.6L0,2.3L0.1,0h15.7l-0.4,6.3l-3.1-0.1l-0.2-4H7.3v9.4h2.1l0.5-2.2l2.2,0.1V16H9.9l-0.5-2.2
	H7.3v9.9h4.9l0.5-4.3l3.3,0.1l0.3,6.6h-16L0.3,23.8z M17.6,26.1l0.1-1.9l1.8-0.4V10.7l-2.1-0.2v-2l5.2-0.8L23,8.9v0.8
	c1.2-1.3,2.7-2.1,4.7-2.1c2.8,0,4.9,1.7,4.9,5.1v11.2l1.9,0.4l-0.1,1.9h-6.1V13.6c0-1.8-0.7-2.8-2.3-2.8c-0.6,0-0.9,0.1-1.4,0.3
	c-0.3,0.2-0.5,0.6-0.8,0.8v12l1.9,0.4l-0.1,1.9L17.6,26.1L17.6,26.1z M116.3,26.1l0.1-1.9l1.8-0.4V10.7l-2.1-0.2v-2l5.2-0.8l0.4,1.1
	v0.8c1.2-1.3,2.7-2.1,4.7-2.1c2.8,0,4.9,1.7,4.9,5.1v11.2l1.9,0.4l-0.1,1.9H127V13.6c0-1.8-0.7-2.8-2.3-2.8c-0.6,0-0.9,0.1-1.4,0.3
	c-0.3,0.2-0.5,0.6-0.8,0.8v12l1.9,0.4l-0.1,1.9L116.3,26.1L116.3,26.1z M44.2,25.8c-0.7,0.3-2,0.6-3.7,0.6c-2.2,0-4.2-1-4.2-4.2
	V10.7l-2.1-0.3l0.1-2.3L36.7,8l1-3.5l3-0.1v3.8h3.2l-0.2,2.3l-3,0.3v11.5c0,0.9,0.5,1.6,1.5,1.6H44L44.2,25.8z M166.4,26.1l0.1-1.9
	l1.7-0.4V10.7l-2-0.2v-2l5.4-0.8L172,9v0.4c1.4-1,3.3-1.7,5.6-1.7l0.8,0.7l-0.6,5l-2.9-0.1l-0.3-2.6c-0.7,0.1-1.3,0.3-1.9,0.7v12.5
	l1.9,0.4l-0.1,1.9L166.4,26.1L166.4,26.1z M89.5,26.1l0.1-1.9l1.7-0.4V10.7l-2-0.2v-2l5.4-0.8L95,9.1v0.4c1.4-1,3.3-1.7,5.6-1.7
	l0.8,0.7l-0.6,5l-2.9-0.1l-0.3-2.6c-0.7,0.1-1.3,0.3-1.9,0.7V24l1.9,0.4l-0.1,1.9L89.5,26.1L89.5,26.1z M45.5,26.1l0.1-1.9l1.7-0.4
	V10.7l-2-0.2v-2l5.4-0.8L51,9.1v0.4c1.4-1,3.3-1.7,5.6-1.7l0.8,0.7l-0.6,5l-2.9-0.1l-0.3-2.6c-0.7,0.1-1.3,0.3-1.9,0.7V24l1.9,0.4
	l-0.1,1.9L45.5,26.1L45.5,26.1z M62.4,18.1c0,3.1,1.4,5.6,4.1,5.6c1.4,0,2.5-0.3,3.8-0.9l0.8,1.7c-1.3,1.1-3.3,1.9-5.7,1.9
	c-4.8,0-7.5-4.1-7.5-9.4c0-4.5,2-9.4,7.4-9.4c4.8,0,6.6,4.4,6.6,9.3L71.3,18L62.4,18.1z M62.3,16l5.5-0.3c-0.1-2.2-0.6-5.7-2.7-5.7
	c-0.5,0-0.9,0.1-1.5,0.4C62.7,12,62.3,14.7,62.3,16z M138.3,18.1c0,3.1,1.4,5.6,4.1,5.6c1.4,0,2.5-0.3,3.8-0.9l0.8,1.7
	c-1.3,1.1-3.3,1.9-5.7,1.9c-4.8,0-7.5-4.1-7.5-9.4c0-4.5,2-9.4,7.4-9.4c4.8,0,6.6,4.4,6.6,9.3l-0.5,1.2L138.3,18.1z M138.2,16
	l5.5-0.3c-0.1-2.2-0.6-5.7-2.7-5.7c-0.5,0-0.9,0.1-1.5,0.4C138.6,12,138.2,14.7,138.2,16z M106.4,18.1c0,3.1,1.4,5.6,4.1,5.6
	c1.4,0,2.5-0.3,3.8-0.9l0.8,1.7c-1.3,1.1-3.3,1.9-5.7,1.9c-4.8,0-7.5-4.1-7.5-9.4c0-4.5,2-9.4,7.4-9.4c4.8,0,6.6,4.4,6.6,9.3
	l-0.5,1.2L106.4,18.1z M106.4,16l5.5-0.3c-0.1-2.2-0.6-5.7-2.7-5.7c-0.5,0-0.9,0.1-1.5,0.4C106.7,12,106.3,14.7,106.4,16z
	 M160.1,26.1l-0.5-1.6c-1.2,1.1-2.4,1.8-4.2,1.8c-2.8,0-5.3-1.4-5.3-5.3V10.2L148,10V8.3l5.9-0.7l0.5,1.6v11.4c0,2,0.8,3,2.4,3
	c0.5,0,1-0.1,1.6-0.3c0.3-0.3,0.6-0.6,0.8-1V10.2l-2.1-0.2V8.3l6-0.7l0.5,1.6v14.6l1.9,0.4l-0.2,1.9H160.1z M80.7,23.8
	c-0.9,0-1.7-0.2-2.3-0.5V11.7c0.3-0.4,0.6-0.8,0.8-1.1c0.6-0.2,1-0.3,1.6-0.3c2.5,0,2.9,2.5,2.9,6.9c0,4.3-0.7,5.5-0.8,5.9
	C82.3,23.6,81.6,23.8,80.7,23.8L80.7,23.8z M88,16.5c0-5.5-1.6-9-5.7-9c-2.7,0-4,1.6-4.5,2.2V9.2l-0.5-1.6L72,8.3v1.9l2.1,0.3v22.3
	l-1.8,0.4L72.2,35h7.9l0.1-1.9l-1.9-0.4v-7.1c0.8,0.4,1.8,0.7,2.9,0.7C88,26.4,88,19.6,88,16.5L88,16.5z"/>
</svg>
