<?xml version="1.0" encoding="utf-8"?>
<!-- Generator: Adobe Illustrator 25.2.1, SVG Export Plug-In . SVG Version: 6.00 Build 0)  -->
<svg version="1.1" xmlns="http://www.w3.org/2000/svg" xmlns:xlink="http://www.w3.org/1999/xlink" x="0px" y="0px"
	 viewBox="0 0 447.3 367.7" style="enable-background:new 0 0 447.3 367.7;" xml:space="preserve">
<style type="text/css">
	.st0{display:none;}
	.st1{fill:#FFFFFF;}
	.st2{opacity:0.15;}
	.st3{fill:#F7A8AA;}
	.st4{fill:none;stroke:#BE1E2D;stroke-width:2.6;stroke-miterlimit:10;}
	.st5{opacity:0.14;}
	.st6{fill:#BE1E2D;}
	.st7{fill:none;stroke:#BE1E2D;stroke-width:2.5;stroke-miterlimit:10;}
</style>
<g id="Layer_1" class="st0">
	
		<image style="display:inline;overflow:visible;" width="1202" height="988" xlink:href="BCD96FC4.jpg"  transform="matrix(0.3721 0 0 0.3721 0 0)">
	</image>
</g>
<g id="Layer_2">
	<path class="st1" d="M445.4,367.7H0V7c0-3.9,3.1-7,7-7h433.3c3.9,0,7,3.1,7,7v360.7H445.4"/>
</g>
<g id="Layer_3">
	<rect x="179.3" y="56.1" class="st2" width="91.4" height="9.4"/>
	<rect x="71.7" y="87.7" class="st2" width="49" height="10.7"/>
	<rect x="208.4" y="87.7" class="st2" width="194.7" height="10.7"/>
	<rect x="120.7" y="87.7" class="st3" width="87.7" height="10.7"/>
	<rect x="45.1" y="109.2" class="st2" width="358" height="10.7"/>
	<rect x="45.1" y="130.8" class="st2" width="358" height="10.7"/>
	<rect x="45.1" y="152.5" class="st2" width="214.5" height="10.7"/>
	<rect x="347.2" y="152.5" class="st2" width="55.8" height="10.7"/>
	<rect x="259.6" y="152.5" class="st3" width="87.7" height="10.7"/>
	<rect x="45.1" y="174.2" class="st2" width="358" height="10.7"/>
	<rect x="45.1" y="195.8" class="st2" width="358" height="10.7"/>
	<rect x="45.1" y="217.5" class="st2" width="358" height="10.7"/>
	<rect x="197.2" y="239.2" class="st2" width="205.9" height="10.7"/>
	<rect x="45.1" y="239.2" class="st2" width="33.6" height="10.7"/>
	<rect x="78.7" y="239.2" class="st3" width="118.5" height="10.7"/>
	<rect x="45.1" y="260.8" class="st2" width="358" height="10.7"/>
	<rect x="45.1" y="282.5" class="st2" width="358" height="10.7"/>
	<rect x="45.1" y="304.2" class="st2" width="358" height="10.7"/>
</g>
<g id="Layer_4">
	<ellipse class="st4" cx="111.6" cy="157.8" rx="22.9" ry="12.2"/>
	<line class="st4" x1="292.5" y1="259.1" x2="314.3" y2="234.8"/>
	<line class="st4" x1="315.8" y1="257.5" x2="291" y2="236.3"/>
</g>
<g id="Layer_5">
	<g>
		<g>
			<g class="st5">
				<rect x="268.7" y="116.5" width="119.5" height="34.2"/>
				<polygon points="284.5,157.7 292.3,150.6 276.7,150.6 				"/>
			</g>
			<g>
				<g>
					<rect x="265.7" y="113.5" class="st1" width="119.5" height="34.2"/>
					<polygon class="st1" points="281.5,154.7 289.3,147.6 273.7,147.6 					"/>
				</g>
			</g>
		</g>
		<rect x="265.7" y="113.5" class="st6" width="1.5" height="34.2"/>
	</g>
</g>
<g id="Layer_6">
	<g>
		<polyline class="st7" points="190.6,210 193.2,212 195.7,210 198.2,212 200.8,210 203.3,212 205.9,210 208.4,212 211,210 
			213.5,212 216.1,210 218.6,212 221.2,210 223.7,212 226.3,210 228.8,212 231.4,210 233.9,212 236.5,210 239,212 241.6,210 		"/>
	</g>
</g>
</svg>
