<?xml version="1.0" encoding="utf-8"?>
<!-- Generator: Adobe Illustrator 25.2.1, SVG Export Plug-In . SVG Version: 6.00 Build 0)  -->
<svg version="1.1" xmlns="http://www.w3.org/2000/svg" xmlns:xlink="http://www.w3.org/1999/xlink" x="0px" y="0px"
	 viewBox="0 0 245.2 70.3" style="enable-background:new 0 0 245.2 70.3;" xml:space="preserve">
<style type="text/css">
	.st0{fill:#FFFFFF;}
</style>
<g id="Layer_2">
</g>
<g id="svg2" xmlns:cc="http://creativecommons.org/ns#" xmlns:dc="http://purl.org/dc/elements/1.1/" xmlns:inkscape="http://www.inkscape.org/namespaces/inkscape" xmlns:rdf="http://www.w3.org/1999/02/22-rdf-syntax-ns#" xmlns:sodipodi="http://sodipodi.sourceforge.net/DTD/sodipodi-0.dtd" xmlns:svg="http://www.w3.org/2000/svg">
	
		<sodipodi:namedview  bordercolor="#666666" borderopacity="1.0" fit-margin-bottom="0" fit-margin-left="0" fit-margin-right="0" fit-margin-top="0" id="base" inkscape:current-layer="layer1" inkscape:cx="159.27579" inkscape:cy="31.627717" inkscape:document-units="px" inkscape:pageopacity="0.0" inkscape:pageshadow="2" inkscape:window-height="1027" inkscape:window-maximized="1" inkscape:window-width="1920" inkscape:window-x="-8" inkscape:window-y="-8" inkscape:zoom="1" pagecolor="#ffffff" showgrid="false">
		</sodipodi:namedview>
	<g id="layer1" transform="translate(-310.8087,-452.81818)" inkscape:groupmode="layer" inkscape:label="Calque 1">
		<g id="g2993" transform="matrix(1.25,0,0,-1.25,0,1052.5)" inkscape:label="ink_ext_XXXXXX">
			<g id="g2995" transform="scale(0.1,0.1)">
			</g>
		</g>
		<g id="g3007" transform="matrix(1.25,0,0,-1.25,0,1052.5)" inkscape:label="ink_ext_XXXXXX">
			<g id="g3009" transform="scale(0.1,0.1)">
			</g>
		</g>
		<g id="g3021" transform="matrix(1.25,0,0,-1.25,0,1052.5)" inkscape:label="ink_ext_XXXXXX">
			<g id="g3023" transform="scale(0.1,0.1)">
			</g>
		</g>
		<g id="g3529" transform="matrix(0.99288268,0,0,0.99288268,126.48577,-839.05902)">
			<g id="g3053" transform="matrix(1.25,0,0,-1.25,213.75671,1344.8858)">
				<path id="path3055" inkscape:connector-curvature="0" class="st0" d="M0,0l-0.6-0.6l-9.8-9.5l-0.6-0.6l0.5-0.6
					c2.9-3.6,6.2-6.9,9.9-9.7L0-21.4L0.5-21c3.7,2.8,7.1,6,10,9.7l0.5,0.6l-0.6,0.6L0.6-0.6L0,0z M0-1.3l9.8-9.5
					C7-14.4,3.7-17.6,0-20.3c-3.7,2.8-7,6-9.8,9.5L0-1.3"/>
			</g>
			<g id="g3061" transform="matrix(1.25,0,0,-1.25,239.94208,1330.5446)">
				<path id="path3063" inkscape:connector-curvature="0" class="st0" d="M0,0h-1.1h-39.6h-1.1l0.2-1.1c1.1-5.2,3-10.1,5.6-14.8
					l0.6-1l0.8,0.8l13.7,13.2l13.8-13.2l0.8-0.8l0.6,1c2.5,4.4,4.3,9.1,5.4,14.1l0.1,0.4l0.1,0.3L0,0z M-1.1-0.9
					c0-0.2-0.1-0.5-0.1-0.7c-1.1-5-2.9-9.6-5.3-13.9L-20.9-1.6l-14.3-13.8c-2.5,4.5-4.4,9.4-5.5,14.5L-1.1-0.9"/>
			</g>
			<g id="g3065" transform="matrix(1.25,0,0,-1.25,213.75896,1347.2401)">
				<path id="path3067" inkscape:connector-curvature="0" class="st0" d="M0,0l-9.8-9.6l-0.3,0.4c-1.7,2.2-3.3,4.5-4.6,6.9L-14.9-2
					L0,12.3L14.9-2l-0.2-0.3c-1.3-2.4-2.9-4.7-4.6-6.9L9.8-9.6L0,0z"/>
			</g>
			<g id="g3069" transform="matrix(1.25,0,0,-1.25,213.75896,1331.0326)">
				<path id="path3071" inkscape:connector-curvature="0" class="st0" d="M0,0l-0.6-0.6L-15-14.4l-0.5-0.5l0.3-0.6
					c1.4-2.4,2.9-4.7,4.7-6.9l0.6-0.8l0.7,0.7L0-13.6l9.2-8.9l0.7-0.7l0.6,0.8c1.7,2.2,3.3,4.5,4.6,6.9l0.3,0.6L15-14.4L0.6-0.6L0,0
					z M0-1.2l14.4-13.8c-1.3-2.4-2.9-4.7-4.6-6.8L0-12.3l-9.8-9.5c-1.7,2.2-3.2,4.4-4.6,6.8L0-1.2"/>
			</g>
			<g id="g3073" transform="matrix(1.25,0,0,-1.25,213.75896,1347.2401)">
				<path id="path3075" inkscape:connector-curvature="0" class="st0" d="M0,0l-9.8-9.6l-0.3,0.4c-1.7,2.2-3.3,4.5-4.6,6.9L-14.9-2
					L0,12.3L14.9-2l-0.2-0.3c-1.3-2.4-2.9-4.7-4.6-6.9L9.8-9.6L0,0z"/>
			</g>
			<g id="g3077" transform="matrix(1.25,0,0,-1.25,213.75896,1331.0326)">
				<path id="path3079" inkscape:connector-curvature="0" class="st0" d="M0,0l-0.6-0.6L-15-14.4l-0.5-0.5l0.3-0.6
					c1.4-2.4,2.9-4.7,4.7-6.9l0.6-0.8l0.7,0.7L0-13.6l9.2-8.9l0.7-0.7l0.6,0.8c1.7,2.2,3.3,4.5,4.6,6.9l0.3,0.6L15-14.4L0.6-0.6L0,0
					z M0-1.2l14.4-13.8c-1.3-2.4-2.9-4.7-4.6-6.8L0-12.3l-9.8-9.5c-1.7,2.2-3.2,4.4-4.6,6.8L0-1.2"/>
			</g>
			<g id="g3085" transform="matrix(1.25,0,0,-1.25,213.77983,1301.3896)">
				<path id="path3087" inkscape:connector-curvature="0" class="st0" d="M0,0l-0.8-1.3c-3-5-8.6-8.1-14.6-8.1
					c-1.7,0-3.4,0.3-5.1,0.8l-1.1,0.3l-0.1-1.1c-0.4-5-0.1-10,0.9-15l0.1-0.7h0.7h39.6h0.7l0.1,0.7c1,5,1.3,10,0.9,15l-0.1,1.1
					l-1.1-0.3c-1.6-0.5-3.3-0.8-5.1-0.8c-6,0-11.6,3.1-14.6,8.1L0,0z M0-1.7c3.1-5.1,8.8-8.6,15.4-8.6c1.9,0,3.6,0.3,5.3,0.8
					c0.4-4.8,0.1-9.7-0.9-14.7h-39.6c-1,4.8-1.3,9.7-0.9,14.7c1.7-0.5,3.5-0.8,5.3-0.8C-8.8-10.3-3.1-6.9,0-1.7"/>
			</g>
			<g id="g3097" transform="matrix(1.25,0,0,-1.25,195.82583,1349.8186)">
				<path id="path3099" inkscape:connector-curvature="0" class="st0" d="M0,0c1.3-2.4,2.9-4.7,4.6-6.8l9.8,9.5l9.8-9.5
					c1.7,2.1,3.2,4.4,4.6,6.8L14.3,13.8L0,0z"/>
			</g>
			<g id="g3101" transform="matrix(1.25,0,0,-1.25,213.75896,1345.6706)">
				<path id="path3103" inkscape:connector-curvature="0" class="st0" d="M0,0l-9.7-9.5c-1.5,1.9-2.9,4-4.1,6.1L0,9.8L13.8-3.4
					c-1.2-2.1-2.6-4.1-4-6.1L0,0z"/>
			</g>
			<g id="g3105" transform="matrix(1.25,0,0,-1.25,213.75896,1332.5934)">
				<path id="path3107" inkscape:connector-curvature="0" class="st0" d="M0,0l-14.3-13.8c1.3-2.4,2.9-4.7,4.6-6.8L0-11.1l9.8-9.5
					c1.7,2.1,3.2,4.4,4.6,6.8L0,0z M0-1.2L13.2-14c-1.1-1.8-2.2-3.6-3.5-5.3l-9.1,8.8L0-9.8l-0.6-0.6l-9.1-8.8
					c-1.3,1.7-2.5,3.5-3.5,5.3L0-1.2"/>
			</g>
			<path class="st0" d="M240.2,1313.3l-0.1-0.7l-0.7,0.2c-2.1,0.6-4.3,1-6.5,1c-7.7,0-14.9-4-18.7-10.5l-0.5-0.8l-0.5,0.8
				c-3.9,6.4-11.1,10.5-18.7,10.5c-2.2,0-4.4-0.3-6.5-1l-0.7-0.2l-0.1,0.7c-0.5,6.2-0.2,12.4,1.1,18.5l0.1,0.4H239l0.1-0.4
				C240.4,1325.6,240.8,1319.4,240.2,1313.3z M226,1320.9h-1.3v3.4h1.3v2.1h-1.3v2.6c0,0-2.2,0.3-4.2,0.3c-2.4,0-3.8-0.3-5.3-0.4
				v0.7c0,0-0.7,0.3-1.5,0.3c-0.8,0-1.4-0.3-1.4-0.3v-0.7c-1.5,0-2.9,0.4-5.3,0.4c-2,0-4.2-0.3-4.2-0.3v-2.6h-1.3v-2.1h1.3v-3.4
				h-1.3v-2.1h1.3v-1.5l1.5-0.3h0.1v-1.3c0,0,0.4,0.6,2.5,0.6c2,0,3.2-0.7,4.8-0.7c1.5,0,2,0.9,2,0.9v0.5h0.1v-0.5
				c0,0,0.5-0.9,2-0.9c1.6,0,2.8,0.7,4.8,0.7c2.1,0,2.6-0.6,2.6-0.6v1.3h0.1l1.3,0.4v1.5h1.3V1320.9z"/>
			<g id="g3117" transform="matrix(1.25,0,0,-1.25,224.44571,1328.8849)">
				<path id="path3119" inkscape:connector-curvature="0" class="st0" d="M0,0c-0.4-0.1-1.8-0.2-3.2-0.2C-5-0.2-7.3,0-7.4,0l-0.2,0
					v-0.6c-0.2-0.1-0.6-0.2-1-0.2c-0.4,0-0.8,0.1-1,0.2v0.6l-0.2,0c0,0-2.3-0.3-4.2-0.3c-1.3,0-2.7,0.2-3.2,0.2v9.1
					c0.2,0,0.7,0.1,0.9,0.2V1c0.1-0.2,0.5-0.6,2.2-0.6l2.2,0.3l1.7,0.2c1.1,0,1.5-0.6,1.5-0.6l0.1,0h0.3l0,0c0,0,0.4,0.6,1.5,0.6
					l1.7-0.2L-3,0.4c1.7,0,2.2,0.5,2.2,0.5l0,8.4C-0.6,9.2-0.1,9.1,0,9.1V0z M-15.9,10.2c0.3-0.1,0.8-0.3,1.8-0.3l2.2,0.3l1.7,0.2
					c1.1,0,1.4-0.6,1.5-0.6v-9C-9,1.1-9.4,1.3-10.2,1.3l-1.7-0.2L-14,0.8c-1.5,0-1.9,0.4-1.9,0.4C-15.9,1.1-15.9,9.6-15.9,10.2
					 M-8.4,9.8c0,0,0.4,0.6,1.5,0.6l1.7-0.2L-3,9.9c1.1,0,1.6,0.2,1.9,0.3V1.1c0,0-0.5-0.3-1.9-0.3l-2.1,0.3l-1.7,0.2
					c-0.8,0-1.2-0.2-1.5-0.5V9.8z M-0.8,9.7l0,1.3l-0.3-0.3c0,0-0.4-0.4-1.9-0.4l-2.1,0.3l-1.7,0.2c-1,0-1.4-0.4-1.6-0.6
					c-0.2,0.2-0.7,0.6-1.6,0.6l-1.7-0.2l-2.1-0.3c-1.5,0-1.9,0.4-1.9,0.4l-0.3,0.4l0-0.5V9.6l-1.3-0.3v-9.7l0.2,0
					c0,0,1.8-0.3,3.4-0.3c1.6,0,3.5,0.2,4,0.3v-0.4l0.1-0.1c0,0,0.5-0.3,1.2-0.3c0.7,0,1.3,0.3,1.3,0.3l0.1,0v0.4
					c0.6-0.1,2.5-0.3,4.1-0.3c1.6,0,3.3,0.3,3.4,0.3l0.2,0v9.7C0.4,9.4-0.8,9.7-0.8,9.7z"/>
			</g>
			<g id="g3121" transform="matrix(1.25,0,0,-1.25,207.80171,1318.1566)">
				<path id="path3123" inkscape:connector-curvature="0" class="st0" d="M0,0c-0.1,0-0.2-0.1-0.3-0.2l-0.6-1.3c0,0,0,0,0,0
					c0,0,0,0-0.1,0.1c0,0-0.1,0.2-0.2,0.6l-0.2,0.4c-0.1,0.2-0.1,0.3-0.1,0.3C-1.6,0-1.7,0-1.8,0c0,0,0,0,0,0c0,0,0,0,0,0h0.1
					c0.1,0,0.2,0,0.3,0c0.1,0,0.3,0,0.4,0H-1c0,0,0,0,0,0c0,0,0,0,0,0C-1,0-1.2,0-1.2-0.1c0,0,0-0.1,0-0.1l0.4-0.9l0.3,0.7
					c0,0.1,0,0.2,0,0.2C-0.4-0.1-0.5,0-0.6,0c0,0,0,0,0,0c0,0,0,0,0,0h0c0.1,0,0.1,0,0.3,0c0,0,0.1,0,0.2,0L0,0C0,0.1,0,0.1,0,0
					C0,0,0,0,0,0"/>
			</g>
			<g id="g3125" transform="matrix(1.25,0,0,-1.25,209.81096,1319.9547)">
				<path id="path3127" inkscape:connector-curvature="0" class="st0" d="M0,0c-0.5,0-0.7,0-0.8,0c0,0-0.2,0-0.2,0
					c-0.1,0-0.2,0-0.4,0l-0.1,0c0,0,0,0,0,0c0,0,0,0,0,0c0.1,0,0.2,0,0.2,0c0,0,0,0.1,0,0.2c0,0.1,0,0.1,0,0.2c0,0.1,0,0.3,0,0.4
					v0.2c0,0.2-0.1,0.2-0.3,0.2c0,0,0,0,0,0c0,0,0,0,0,0h0.1c0.1,0,0.2,0,0.5,0c0.3,0,0.5,0,0.6,0c0,0,0.1,0,0.2,0c0,0,0,0,0,0
					l0-0.3c0,0,0,0,0,0c0,0,0,0,0,0c-0.1,0.2-0.2,0.2-0.2,0.3c0,0-0.1,0-0.1,0c0,0-0.1,0-0.2,0c-0.1,0-0.2,0-0.2,0c0,0,0,0,0-0.1
					c0,0,0-0.1,0-0.3V0.9h0.1c0.1,0,0.1,0,0.2,0c0.1,0,0.1,0.1,0.2,0.1c0,0,0,0.1,0,0.1c0,0,0,0,0,0c0,0,0,0,0,0c0-0.1,0-0.2,0-0.3
					c0-0.1,0-0.2,0-0.3c0,0,0,0,0,0c0,0,0,0,0,0c0,0.1,0,0.2-0.1,0.3c-0.1,0-0.1,0-0.2,0c0,0-0.1,0-0.1,0V0.4c0-0.1,0-0.1,0-0.2
					c0,0,0-0.1,0.1-0.1c0,0,0.1,0,0.1,0h0.2c0.1,0,0.1,0,0.2,0c0.1,0,0.2,0.2,0.2,0.3c0,0,0,0,0,0s0,0,0,0L0,0C0.1,0,0.1,0,0,0"/>
			</g>
			<g id="g3129" transform="matrix(1.25,0,0,-1.25,212.09708,1318.6533)">
				<path id="path3131" inkscape:connector-curvature="0" class="st0" d="M0,0C0,0,0,0,0,0c-0.1,0.1-0.1,0.2-0.2,0.2
					c-0.1,0.1-0.1,0.1-0.3,0.1c0,0-0.1,0-0.1,0l0-0.7c0-0.1,0-0.2,0-0.5c0-0.2,0.1-0.2,0.3-0.2c0,0,0,0,0,0c0,0,0,0,0,0h-0.1
					c-0.1,0-0.3,0-0.4,0c0,0-0.3,0-0.4,0c0,0,0,0,0,0c0,0,0,0,0,0c0.2,0,0.3,0.1,0.3,0.1c0,0,0,0.2,0,0.5v0.6c0,0.1,0,0.1,0,0.2
					c0,0-0.2,0-0.2,0c-0.1,0-0.2-0.1-0.3-0.3c0,0,0,0,0,0c0,0,0,0,0,0v0.4c0,0,0,0,0,0c0,0,0.1,0,0.2,0c0.1,0,0.3,0,0.6,0
					c0.4,0,0.6,0,0.7,0c0,0,0.1,0,0.1,0c0,0,0,0,0-0.1L0,0C0,0,0,0,0,0"/>
			</g>
			<g id="g3133" transform="matrix(1.25,0,0,-1.25,207.70946,1321.6297)">
				<path id="path3135" inkscape:connector-curvature="0" class="st0" d="M0,0C0,0,0,0,0,0c-0.1,0.1-0.1,0.2-0.2,0.2
					c-0.1,0.1-0.1,0.1-0.3,0.1c0,0-0.1,0-0.1,0l0-0.7c0-0.1,0-0.2,0-0.5c0-0.2,0.1-0.2,0.3-0.2c0,0,0,0,0,0c0,0,0,0,0,0h-0.1
					c-0.1,0-0.3,0-0.4,0c0,0-0.3,0-0.4,0c0,0,0,0,0,0c0,0,0,0,0,0c0.2,0,0.3,0.1,0.3,0.1c0,0,0,0.2,0,0.5v0.6c0,0.1,0,0.1,0,0.2
					c0,0-0.2,0-0.2,0c-0.1,0-0.2-0.1-0.3-0.3c0,0,0,0,0,0c0,0,0,0,0,0v0.4c0,0,0,0,0,0s0.1,0,0.2,0c0.1,0,0.3,0,0.6,0
					c0.4,0,0.6,0,0.7,0c0,0,0.1,0,0.1,0c0,0,0,0,0-0.1L0,0C0,0,0,0,0,0"/>
			</g>
			<g id="g3137" transform="matrix(1.25,0,0,-1.25,209.88133,1322.9311)">
				<path id="path3139" inkscape:connector-curvature="0" class="st0" d="M0,0c-0.5,0-0.7,0-0.8,0C-0.8,0-0.9,0-1,0s-0.2,0-0.4,0
					l-0.1,0c0,0,0,0,0,0c0,0,0,0,0,0c0.1,0,0.2,0,0.2,0c0,0,0,0.1,0,0.2c0,0.1,0,0.1,0,0.2c0,0.1,0,0.3,0,0.4c0,0.1,0,0.2,0,0.2
					c0,0.2-0.1,0.2-0.3,0.2c0,0,0,0,0,0c0,0,0,0,0,0h0.1c0.1,0,0.2,0,0.5,0c0.3,0,0.5,0,0.6,0c0,0,0.1,0,0.2,0c0,0,0.1,0,0.1,0
					l0-0.3c0,0,0,0,0,0c0,0,0,0,0,0c-0.1,0.2-0.1,0.2-0.2,0.3c0,0-0.1,0-0.1,0c0,0-0.1,0-0.2,0c-0.1,0-0.2,0-0.2,0c0,0,0,0,0-0.1
					c0,0,0-0.1,0-0.3V0.9h0c0.1,0,0.1,0,0.2,0c0.1,0,0.1,0.1,0.2,0.1c0,0,0,0.1,0,0.1c0,0,0,0,0,0c0,0,0,0,0,0c0-0.1,0-0.2,0-0.3
					c0-0.1,0-0.2,0-0.3c0,0,0,0,0,0c0,0,0,0,0,0c0,0.1,0,0.2-0.1,0.3c-0.1,0-0.1,0-0.2,0c0,0-0.1,0-0.1,0V0.4c0-0.1,0-0.1,0-0.2
					c0,0,0-0.1,0.1-0.1c0,0,0.1,0,0.1,0h0.2c0.1,0,0.1,0,0.2,0c0.1,0,0.2,0.2,0.2,0.3c0,0,0,0,0,0c0,0,0,0,0,0L0,0C0.1,0,0.1,0,0,0"
					/>
			</g>
			<g id="g3141" transform="matrix(1.25,0,0,-1.25,211.21771,1322.9749)">
				<path id="path3143" inkscape:connector-curvature="0" class="st0" d="M0,0c-0.1,0-0.3,0-0.4,0.1c0,0,0,0-0.1,0
					c0,0-0.1,0-0.1-0.1c0,0-0.1,0-0.1,0c0,0,0,0.1,0,0.2c0,0,0,0.2,0,0.2c0,0,0,0,0.1,0h0c0-0.1,0.1-0.2,0.1-0.3
					C-0.3,0.2-0.1,0.1,0,0.1c0.1,0,0.2,0,0.2,0.1c0.1,0.1,0.1,0.1,0.1,0.2c0,0.1,0,0.1,0,0.1c0,0-0.1,0.1-0.2,0.1
					C0,0.6-0.2,0.7-0.3,0.7c-0.1,0-0.2,0.1-0.2,0.1C-0.6,1-0.6,1.1-0.6,1.2c0,0.2,0.2,0.4,0.5,0.4c0.1,0,0.2,0,0.4-0.1
					c0,0,0.1,0.1,0.1,0.1c0,0,0.1,0,0.1,0c0,0,0-0.1,0-0.2c0,0,0-0.2,0-0.2c0,0,0,0-0.1,0c0,0,0,0,0,0c0,0.1-0.1,0.2-0.1,0.3
					C0.1,1.4,0,1.5-0.1,1.5c-0.2,0-0.3-0.1-0.3-0.2c0-0.1,0.1-0.2,0.2-0.2C-0.1,1,0,1,0,1c0.1,0,0.2-0.1,0.2-0.1
					c0.2-0.1,0.2-0.2,0.2-0.4C0.5,0.2,0.3,0,0,0"/>
			</g>
			<g id="g3145" transform="matrix(1.25,0,0,-1.25,208.47446,1325.9118)">
				<path id="path3147" inkscape:connector-curvature="0" class="st0" d="M0,0c-0.5,0-0.7,0-0.8,0c0,0-0.2,0-0.2,0
					c-0.1,0-0.2,0-0.4,0l-0.1,0c0,0,0,0,0,0c0,0,0,0,0,0c0.1,0,0.2,0,0.2,0c0,0,0,0.1,0,0.2c0,0.1,0,0.1,0,0.2c0,0.1,0,0.3,0,0.4
					v0.2c0,0.2-0.1,0.2-0.3,0.2c0,0,0,0,0,0c0,0,0,0,0,0h0.1c0.1,0,0.2,0,0.5,0c0.3,0,0.5,0,0.6,0c0,0,0.1,0,0.2,0c0,0,0,0,0,0
					l0-0.3c0,0,0,0,0,0c0,0,0,0,0,0c-0.1,0.2-0.2,0.2-0.2,0.3c0,0-0.1,0-0.1,0c0,0-0.1,0-0.2,0c-0.1,0-0.2,0-0.2,0c0,0,0,0,0-0.1
					c0,0,0-0.1,0-0.3V0.9h0.1c0.1,0,0.1,0,0.2,0c0.1,0,0.1,0.1,0.2,0.1c0,0,0,0.1,0,0.1c0,0,0,0,0,0c0,0,0,0,0,0c0-0.1,0-0.2,0-0.3
					c0-0.1,0-0.2,0-0.3c0,0,0,0,0,0c0,0,0,0,0,0c0,0.1,0,0.2-0.1,0.3c-0.1,0-0.1,0-0.2,0c0,0-0.1,0-0.1,0V0.4c0-0.1,0-0.1,0-0.2
					c0,0,0-0.1,0.1-0.1c0,0,0.1,0,0.1,0h0.2c0.1,0,0.1,0,0.2,0c0.1,0,0.2,0.2,0.2,0.3c0,0,0,0,0,0s0,0,0,0L0,0C0.1,0,0.1,0,0,0"/>
			</g>
			<g id="g3149" transform="matrix(1.25,0,0,-1.25,211.24408,1324.105)">
				<path id="path3151" inkscape:connector-curvature="0" class="st0" d="M0,0c-0.2,0-0.3-0.1-0.3-0.3l0-0.8c0,0,0-0.3,0-0.3
					c0,0,0,0-0.1,0c0,0,0,0,0,0l-1.1,1.2l0-0.2l0-0.4c0,0,0-0.1,0-0.2c0-0.1,0-0.1,0.1-0.2c0.1,0,0.1-0.1,0.2-0.1c0,0,0,0,0,0
					c0,0,0,0,0,0h-0.1c-0.1,0-0.2,0-0.3,0c-0.1,0-0.2,0-0.2,0h0c0,0,0,0,0,0s0,0,0,0c0.1,0,0.2,0,0.2,0.1c0,0,0,0.1,0,0.2v0.5
					c0,0.1,0,0.1,0,0.2c0,0.1,0,0.1-0.1,0.2c0,0,0,0-0.1,0.1C-1.7,0-1.8,0-1.9,0c0,0,0,0,0,0c0,0,0,0,0,0h0c0,0,0.2,0,0.3,0h0.1
					c0,0,0,0,0,0l0.8-0.9C-0.5-0.9-0.4-1-0.4-1v0.6c0,0.1,0,0.1,0,0.2c0,0.1,0,0.1,0,0.2C-0.5,0-0.6,0-0.7,0c0,0,0,0,0,0
					c0,0,0,0,0,0h0c0.1,0,0.2,0,0.3,0C-0.2,0.1-0.2,0.1,0,0L0,0C0,0.1,0,0,0,0C0,0,0,0,0,0"/>
			</g>
			<g id="g3153" transform="matrix(1.25,0,0,-1.25,217.50908,1318.1478)">
				<path id="path3155" inkscape:connector-curvature="0" class="st0" d="M0,0c-0.2,0-0.3-0.1-0.3-0.3v-0.8c0,0,0-0.3,0-0.3
					c0,0,0,0-0.1,0c0,0,0,0,0,0l-1.1,1.2l0-0.2l0-0.4c0,0,0-0.1,0-0.2c0-0.1,0-0.1,0.1-0.2c0.1,0,0.1-0.1,0.2-0.1c0,0,0,0,0,0
					c0,0,0,0,0,0h-0.1c-0.1,0-0.2,0-0.3,0c-0.1,0-0.2,0-0.2,0h0c0,0,0,0,0,0s0,0,0,0c0.1,0,0.2,0,0.2,0.1c0,0,0,0.1,0,0.2v0.5
					c0,0.1,0,0.1,0,0.2c0,0.1,0,0.1-0.1,0.2c0,0,0,0-0.1,0.1C-1.7,0-1.8,0-1.9,0c0,0,0,0,0,0c0,0,0,0,0,0h0c0,0,0.2,0,0.3,0h0.1
					c0,0,0,0,0,0l0.8-0.9C-0.5-0.9-0.4-1-0.4-1v0.6c0,0.1,0,0.1,0,0.2c0,0.1,0,0.1,0,0.2C-0.5,0-0.6,0-0.7,0c0,0,0,0,0,0
					c0,0,0,0,0,0h0c0.1,0,0.2,0,0.3,0C-0.2,0.1-0.1,0.1,0,0L0,0C0,0.1,0,0,0,0C0,0,0,0,0,0"/>
			</g>
			<g id="g3157" transform="matrix(1.25,0,0,-1.25,219.17546,1318.3281)">
				<path id="path3159" inkscape:connector-curvature="0" class="st0" d="M0,0c-0.1,0.1-0.2,0.2-0.3,0.2c-0.1,0-0.2-0.1-0.3-0.2
					c-0.1-0.1-0.1-0.3-0.1-0.5c0-0.2,0.1-0.4,0.1-0.5c0.1-0.1,0.2-0.2,0.3-0.2C-0.1-1.2,0-1.2,0-1c0.1,0.1,0.1,0.3,0.1,0.5
					C0.1-0.3,0.1-0.1,0,0 M0.2-1.1C0.1-1.3-0.1-1.3-0.3-1.3c-0.2,0-0.4,0.1-0.5,0.2C-1-1-1.1-0.8-1.1-0.5C-1.1-0.3-1-0.1-0.8,0
					c0.2,0.2,0.4,0.2,0.5,0.2c0.1,0,0.3,0,0.4-0.1C0.3,0,0.5-0.3,0.5-0.5C0.5-0.7,0.4-1,0.2-1.1"/>
			</g>
			<g id="g3161" transform="matrix(1.25,0,0,-1.25,222.18246,1318.1566)">
				<path id="path3163" inkscape:connector-curvature="0" class="st0" d="M0,0c-0.1,0-0.2-0.1-0.3-0.2l-0.6-1.3c0,0,0,0,0,0
					c0,0,0,0-0.1,0.1c0,0-0.1,0.2-0.2,0.6l-0.2,0.4c-0.1,0.2-0.1,0.3-0.1,0.3C-1.6,0-1.7,0-1.7,0c0,0,0,0,0,0c0,0,0,0,0,0h0.1
					c0.1,0,0.2,0,0.3,0c0.1,0,0.3,0,0.4,0H-1c0,0,0,0,0,0c0,0,0,0,0,0C-1,0-1.2,0-1.2-0.1c0,0,0-0.1,0-0.1l0.4-0.9l0.3,0.7
					c0,0.1,0,0.2,0,0.2C-0.4-0.1-0.5,0-0.6,0c0,0,0,0,0,0c0,0,0,0,0,0h0c0.1,0,0.1,0,0.3,0c0,0,0.1,0,0.2,0L0,0C0,0.1,0,0.1,0,0
					C0,0,0,0,0,0"/>
			</g>
			<path class="st0" d="M216.9,1321C216.9,1321,216.9,1321,216.9,1321c-0.2,0-0.5,0-1,0c-0.3,0-0.6,0-0.7,0c-0.1,0-0.2,0-0.2,0
				s-0.1,0-0.1,0.1v0.5c0,0,0,0,0,0c0,0,0,0,0.1,0c0.1-0.2,0.2-0.4,0.4-0.4c0.1,0,0.2,0,0.3,0c0,0.1,0,0.1,0,0.2v0.7
				c0,0.3,0,0.5,0,0.6c0,0.1,0,0.2-0.3,0.2c0,0,0,0,0,0c0,0,0,0,0,0.1c0.1,0,0.4,0,0.5,0c0.1,0,0.3,0,0.5,0h0.1c0,0,0,0,0,0
				c0,0,0,0,0-0.1c-0.2,0-0.3,0-0.3-0.2c0-0.3,0-0.4,0-0.6l0-0.8c0,0,0.1,0,0.2,0c0.2,0,0.3,0.1,0.4,0.2c0,0.1,0.1,0.2,0.1,0.3
				c0,0,0,0,0.1,0c0,0,0,0,0,0L216.9,1321C216.9,1321.1,216.9,1321.1,216.9,1321z"/>
			<g id="g3169" transform="matrix(1.25,0,0,-1.25,217.96646,1321.4232)">
				<path id="path3171" inkscape:connector-curvature="0" class="st0" d="M0,0L0,0c0-0.1-0.1-0.2-0.1-0.2c-0.1-0.2-0.1-0.3-0.1-0.3
					h0.5C0.2-0.4,0.1-0.2,0,0 M1-1.2H0.8c-0.1,0-0.2,0-0.3,0c-0.1,0-0.3,0-0.4,0c0,0,0,0,0,0c0,0,0,0,0,0c0.1,0,0.2,0,0.2,0.1
					c0,0,0,0.1,0,0.2c0,0.1-0.1,0.2-0.1,0.2c0,0,0,0,0,0h-0.5c0,0-0.1-0.1-0.1-0.3c0,0,0-0.1,0-0.1c0,0,0-0.1,0.2-0.1c0,0,0,0,0,0
					c0,0,0,0,0,0h0c-0.1,0-0.1,0-0.3,0c-0.1,0-0.3,0-0.3,0c0,0,0,0,0,0c0,0,0,0,0,0c0.1,0,0.2,0,0.2,0.1c0,0,0.1,0.2,0.2,0.4
					c0.1,0.2,0.2,0.5,0.2,0.6C-0.1,0.1-0.1,0.1,0,0.2C0,0.2,0,0.3,0,0.3c0,0,0,0,0.1,0c0,0,0.1,0,0.1,0c0,0,0-0.1,0-0.1
					C0.3,0,0.4-0.2,0.5-0.4c0.1-0.1,0.1-0.2,0.1-0.4c0-0.1,0.1-0.2,0.1-0.2C0.8-1.1,0.9-1.1,1-1.2C1-1.1,1-1.2,1-1.2
					C1-1.2,1-1.2,1-1.2"/>
			</g>
			<g id="g3173" transform="matrix(1.25,0,0,-1.25,222.10333,1322.9311)">
				<path id="path3175" inkscape:connector-curvature="0" class="st0" d="M0,0l-0.6,0h-0.2c0,0,0,0,0,0c0,0,0,0,0,0c0,0,0.1,0,0.2,0
					c0.1,0,0.1,0.1,0.1,0.2v0.9v0.2h0l-0.3-0.7c0-0.1-0.1-0.2-0.1-0.2c-0.1-0.2-0.1-0.3-0.1-0.3c0,0,0,0,0,0c0,0,0,0,0,0
					c0,0.1-0.1,0.2-0.1,0.2l-0.5,1.1h0V1.1l0-0.7c0-0.2,0.1-0.3,0.3-0.3c0,0,0,0,0,0c0,0,0,0,0,0c0,0,0,0-0.1,0c0,0-0.1,0-0.3,0
					c0,0-0.1,0-0.2,0h-0.1c0,0,0,0,0,0c0,0,0,0,0,0c0,0,0.2,0,0.2,0.1c0,0,0.1,0.1,0.1,0.2v0.4v0.4c0,0.1,0,0.2-0.1,0.2
					c0,0-0.1,0-0.2,0c0,0,0,0,0,0c0,0,0,0,0,0c0.1,0,0.2,0,0.3,0h0.4c0,0,0,0,0,0l0.5-1L-1,0.7c0.1,0.2,0.2,0.4,0.3,0.7
					c0,0.1,0.1,0.1,0.1,0.2l0.6,0c0,0,0,0,0,0c0,0,0,0,0,0c-0.1,0-0.2,0-0.2-0.1c0,0,0-0.1,0-0.2V0.4c0-0.3,0.1-0.3,0.1-0.3
					C-0.1,0.1,0,0.1,0,0C0,0.1,0,0.1,0,0C0,0,0,0,0,0"/>
			</g>
			<g id="g3177" transform="matrix(1.25,0,0,-1.25,216.84533,1324.6106)">
				<path id="path3179" inkscape:connector-curvature="0" class="st0" d="M0,0C0,0,0,0,0,0c-0.1,0.1-0.1,0.2-0.2,0.2
					c-0.1,0.1-0.1,0.1-0.3,0.1c0,0-0.1,0-0.1,0l0-0.7c0-0.1,0-0.2,0-0.5c0-0.2,0.1-0.2,0.3-0.2c0,0,0,0,0,0c0,0,0,0,0,0h-0.1
					c-0.1,0-0.3,0-0.4,0c0,0-0.3,0-0.4,0c0,0,0,0,0,0c0,0,0,0,0,0c0.2,0,0.3,0.1,0.3,0.1c0,0,0,0.2,0,0.5v0.6c0,0.1,0,0.1,0,0.2
					c0,0-0.2,0-0.2,0c-0.1,0-0.2-0.1-0.3-0.3c0,0,0,0,0,0c0,0,0,0,0,0v0.4c0,0,0,0,0,0c0,0,0.1,0,0.2,0c0.1,0,0.3,0,0.6,0
					c0.4,0,0.6,0,0.7,0c0,0,0.1,0,0.1,0c0,0,0,0,0-0.1L0,0C0,0,0,0,0,0"/>
			</g>
			<g id="g3181" transform="matrix(1.25,0,0,-1.25,219.20608,1324.1138)">
				<path id="path3183" inkscape:connector-curvature="0" class="st0" d="M0,0c-0.1,0-0.2-0.1-0.3-0.2l-0.6-1.3c0,0,0,0,0,0
					c0,0,0,0-0.1,0.1c0,0-0.1,0.2-0.2,0.6l-0.2,0.4c-0.1,0.2-0.1,0.3-0.1,0.3C-1.6,0-1.7,0-1.7,0c0,0,0,0,0,0c0,0,0,0,0,0h0.1
					c0.1,0,0.2,0,0.3,0c0.1,0,0.3,0,0.4,0H-1c0,0,0,0,0,0c0,0,0,0,0,0C-1,0-1.2,0-1.2-0.1c0,0,0-0.1,0-0.1l0.4-0.9l0.3,0.7
					c0,0.1,0,0.2,0,0.2C-0.4-0.1-0.5,0-0.6,0c0,0,0,0,0,0c0,0,0,0,0,0h0c0.1,0,0.1,0,0.3,0c0,0,0.1,0,0.2,0L0,0C0,0.1,0,0.1,0,0
					C0,0,0,0,0,0"/>
			</g>
			<g id="g3185" transform="matrix(1.25,0,0,-1.25,222.14283,1325.9118)">
				<path id="path3187" inkscape:connector-curvature="0" class="st0" d="M0,0l-0.6,0h-0.2c0,0,0,0,0,0c0,0,0,0,0,0c0,0,0.1,0,0.2,0
					c0.1,0,0.1,0.1,0.1,0.2v0.9c0,0,0,0.2,0,0.2h0l-0.3-0.7c0-0.1-0.1-0.2-0.1-0.2c-0.1-0.2-0.1-0.3-0.1-0.3c0,0,0,0,0,0s0,0,0,0
					c0,0.1-0.1,0.2-0.1,0.2l-0.5,1.1h0V1.1l0-0.7c0-0.2,0.1-0.3,0.3-0.3c0,0,0,0,0,0c0,0,0,0,0,0c0,0,0,0-0.1,0c0,0-0.1,0-0.3,0
					c0,0-0.1,0-0.2,0h-0.1c0,0,0,0,0,0c0,0,0,0,0,0c0,0,0.2,0,0.2,0.1c0,0,0.1,0.1,0.1,0.2l0,0.4l0,0.4c0,0.1,0,0.2-0.1,0.2
					c0,0-0.1,0-0.2,0c0,0,0,0,0,0c0,0,0,0,0,0c0.1,0,0.2,0,0.3,0h0.4c0,0,0,0,0,0l0.5-1L-1,0.7c0.1,0.2,0.2,0.4,0.3,0.7
					c0,0.1,0.1,0.1,0.1,0.2l0.6,0c0,0,0,0,0,0c0,0,0,0,0,0c-0.1,0-0.2,0-0.2-0.1c0,0,0-0.1,0-0.2V0.4c0-0.3,0.1-0.3,0.1-0.3
					C-0.1,0.1,0,0.1,0,0C0,0.1,0,0.1,0,0C0,0,0,0,0,0"/>
			</g>
			<g id="g3189" transform="matrix(1.25,0,0,-1.25,265.95921,1321.0769)">
				<path id="path3191" inkscape:connector-curvature="0" class="st0" d="M0,0c0,1.5-0.8,2.8-2.1,3.4c-0.6,0.3-1.8,0.5-3.5,0.5
					c-1.5,0-3.9-0.1-4.9-0.1c-0.7,0-1.8,0.1-2.4,0.1c-0.1-0.1-0.1-0.2-0.1-0.3c0-0.1,0-0.3,0.1-0.4c0.4-0.1,1-0.2,1.4-0.3
					c0.3-0.3,0.4-0.5,0.5-1.1C-11,1-11,0.1-11-1.4c0-4.1,0-6.3-0.1-6.8c-0.1-0.6-0.5-1.2-1.1-1.4c-0.3-0.1-0.7-0.2-1.1-0.2
					c0-0.1,0-0.2,0-0.4c0-0.2,0-0.2,0.1-0.3c0.6,0,2.5,0.1,3.2,0.1c1.7,0,3.5-0.1,4.3-0.1h0.5c0.1,0.1,0.1,0.2,0.1,0.3
					c0,0.1,0,0.3,0,0.4c-0.6,0.1-1.5,0.2-1.8,0.6C-7.4-8.9-7.6-8.6-7.6-8l-0.1,4.3c1.2-0.1,2.4-0.1,3.1-0.1c0.9,0,1.7,0.2,2.3,0.4
					C-0.9-2.9,0-1.5,0,0 M-3.5,0.1c0-1-0.4-1.9-1-2.5c-0.4-0.3-1.1-0.5-2-0.5c-0.4,0-0.7,0-0.8,0c-0.2,0-0.3,0-0.3,0.1l0,5.8
					c0.2,0,0.6,0.1,1.1,0.1c1.3,0,2.2-0.3,2.6-1.2C-3.7,1.4-3.5,0.8-3.5,0.1 M17.8-10.1c0,0.1,0,0.3-0.1,0.4c-0.2,0-1,0-1.3,0.3
					c-0.1,0.1-0.3,0.4-0.3,0.5c-0.3,0.9-0.5,1.5-0.8,2.3c-0.4,1-1,1.9-1.5,2.3c-0.2,0.2-0.8,0.4-1.5,0.6c-0.3,0.1-0.6,0.2-0.8,0.3
					c0.3,0.1,0.4,0.1,0.8,0.1c1.5,0.2,1.8,0.4,2.2,0.7C15.3-1.9,15.7-1,15.7,0c0,1.6-1,3.1-2.5,3.6c-0.5,0.1-1.3,0.2-2.4,0.2
					c-1.5,0-3.5-0.1-4.5-0.1c-0.3,0-2,0-2.7,0c-0.3,0-1,0-1.2,0C2.5,3.6,2.4,3.5,2.4,3.4c0-0.1,0-0.3,0-0.4c0.3,0,0.9-0.1,1.3-0.2
					c0.5-0.4,0.6-0.6,0.8-1.1c0.1-0.6,0.1-2.2,0.1-5c0-2,0-4.3-0.1-5.1C4.5-8.8,4.3-9.4,3.8-9.6C3.5-9.6,3-9.7,2.7-9.7
					C2.6-9.8,2.6-10,2.6-10.1c0-0.1,0-0.2,0.1-0.3c0.3,0,3.3,0.1,3.9,0.1c1.3,0,2.3-0.1,3.4-0.1c0,0.1,0.1,0.2,0.1,0.3
					c0,0.1,0,0.3-0.1,0.4c-0.4,0-0.9,0.2-1.1,0.2C8.4-9.3,8-8.8,8-8.1l0,4.5c0.2,0,0.4,0,0.5,0c0.3,0,0.5,0,1-0.3
					c0.7-0.4,1.1-0.7,1.6-1.4c0.6-1,1-2.8,1.2-4.2c0.1-0.4,0.2-0.8,0.6-0.8c0.2,0,1.2-0.1,1.9-0.1h2.8
					C17.8-10.3,17.8-10.2,17.8-10.1 M12.1,0.2c0-1.2-0.8-2.6-1.8-2.8C9.9-2.8,9.4-2.8,8.7-2.8c-0.2,0-0.5,0-0.7,0l0,1.7v3.6
					C8,2.7,8,2.9,8.1,2.9C8.1,3,8.5,3,8.9,3c1.5,0,2.2-0.1,2.7-1.1C12,1.5,12.1,0.8,12.1,0.2 M27.9-10.1c0,0.1,0,0.3-0.1,0.4
					c-0.3,0-1.1,0.1-1.5,0.2C26-9.1,25.8-8.7,25.7-8c0,0.9,0,2.9,0,4.7v4.8c0,0.5,0.2,0.9,0.4,1.1C26.4,3,27.1,3,27.7,3.1
					c0,0.1,0.1,0.3,0.1,0.4c0,0.1-0.1,0.3-0.1,0.3h-0.6c-0.8,0-2.7-0.1-3.4-0.1c-0.4,0-2.3,0.1-3.2,0.1h-0.4C20,3.7,20,3.6,20,3.5
					c0-0.1,0-0.3,0-0.4c1-0.1,1.4-0.2,1.5-0.3c0.2-0.2,0.6-0.6,0.6-1.7c0-0.4,0-1.2,0.1-3c0-1,0-2.4,0-3.5c0-0.6,0-1.8-0.1-2.5
					c0-0.5-0.1-0.9-0.3-1.2c-0.2-0.2-0.5-0.5-1.9-0.6C20-9.8,20-10,20-10.1c0-0.2,0-0.2,0-0.3h0.3c0.8,0,2.7,0.1,3.8,0.1
					c0.3,0,2.3-0.1,3-0.1h0.6C27.8-10.3,27.9-10.1,27.9-10.1 M47.3,3.5c0,0.1,0,0.2-0.1,0.3h-0.5c-1,0-1.6,0-3.4,0
					c-0.6,0-1.5,0-1.7,0h-0.5c-0.1,0-0.1-0.3-0.1-0.3c0-0.1,0-0.3,0.1-0.3c0.3-0.1,1.5-0.2,2-0.6c0.4-0.4,0.5-1.2,0.6-2
					c0-0.3,0-0.6,0-1.4v-4.1c0-0.5,0-0.6,0-0.8c-0.3,0.4-0.8,1.1-1.6,2l-6.5,7.3c-0.1,0.1-0.2,0.2-0.3,0.3c-0.2,0-0.4,0-0.6,0
					c-1.3,0-3.5,0.1-3.9,0.1c0-0.1-0.1-0.2-0.1-0.3c0,0,0-0.3,0.1-0.4c0.3-0.1,0.9-0.2,1.5-0.7c0.3-0.4,0.9-0.8,1-1.2
					c0.1-0.1,0.1-0.4,0.1-0.6c0-1-0.1-2.5-0.1-3.8v-4c0-0.6-0.1-1.2-0.1-1.5c-0.4-0.4-1-0.7-2.1-1c0-0.1-0.1-0.3-0.1-0.4
					c0-0.1,0-0.3,0.1-0.3h0.4c0.4,0,1.3,0.1,1.9,0.1c0.9,0,1.5-0.1,2.3-0.1h1.2c0.1,0,0.1,0.3,0.1,0.3c0,0.1,0,0.2-0.1,0.3
					c-0.7,0.2-1.7,0.3-2.3,1.2c-0.1,0.3-0.3,1.7-0.3,2.4c0,0.6,0,1.5,0,2.6c0,1.6,0,2.9,0,3.6c0.1-0.1,0.3-0.3,0.4-0.4l9.1-10.2
					c0.1-0.1,0.5-0.1,0.5-0.1c0.1,0,0.2,0,0.2,0c0,0.1,0.2,0.4,0.2,0.9c0,0.6,0,1.2,0,1.5V0c0,2.5,1.2,3.1,2.5,3.2
					C47.2,3.3,47.3,3.4,47.3,3.5 M62.6-7.7c-0.1,0.2-0.2,0.5-0.7,0.5c0,0-0.1,0-0.1,0c-1.2-1.7-2.5-2.3-3.9-2.3c-2,0-3.5,1.4-4,2.6
					c-0.3,0.6-0.6,2.1-0.6,3.6c0,1.4,0.2,2.6,0.6,3.4c0.9,2.3,2.1,3,3.7,3c1.3,0,2.3-0.7,3.1-1.8c0.3-0.5,0.7-1.3,1-2.4
					c0.1,0,0.3-0.1,0.4-0.1c0.1,0,0.4,0.1,0.5,0.2c0,0.2-0.2,1.7-0.2,2.2c0,0.6,0.2,1.6,0.2,1.9c-0.1,0.1-0.5,0.2-0.8,0.2
					c-0.3-0.2-0.4-0.5-0.7-0.8C59.9,3.4,58.9,4,56.7,4C54.6,4,53,3.3,51.7,2c-1.4-1.3-2.1-3.2-2.1-5.5c0-2.5,1.1-4.6,2.8-5.9
					c1.1-0.8,2.7-1.3,4.6-1.3c2.4,0,4.1,0.9,5,2.1C62.4-8.1,62.4-8,62.6-7.7 M79.2-7c0,0.3,0,0.4,0,0.6C79-6.4,79-6.4,78.8-6.4
					c-0.1,0-0.3,0-0.4,0c-0.7-1.5-1.6-2.7-2.2-3c-0.3-0.2-0.7-0.2-1.5-0.2h-1.6c-0.6,0-1.1,0.1-1.3,0.1c-0.3,0.1-0.6,0.5-0.7,0.8
					c-0.1,0.3-0.2,0.3-0.2,1.2v4.3h0.7c0.2,0,0.7,0,1.2-0.3c0.5-0.2,0.7-0.5,0.9-0.8c0.2-0.3,0.3-1.4,0.3-1.6
					c0.1-0.1,0.4-0.1,0.5-0.1c0.2,0,0.3,0,0.4,0.1c0,0.5-0.1,2-0.1,2.7c0,1,0.1,2.3,0.2,3C75,0,74.8,0,74.6,0c-0.1,0-0.4,0-0.5-0.1
					c-0.1-0.3-0.3-1.1-0.3-1.2c-0.3-0.5-0.8-0.9-1.3-1c-0.4-0.1-0.9-0.2-1.1-0.2h-0.4v1.8c0,1.9,0,2.5,0.1,2.8
					c0,0.2,0.1,0.5,0.1,0.7c0.2,0,0.3,0,1.2,0c1.1,0,1.7,0,1.8,0c0.6,0,1-0.2,1.3-0.4c0.7-0.6,1.3-1.5,1.9-2.4c0.1,0,0.3,0,0.4,0
					c0.1,0,0.1,0,0.3,0.1c0,1.2-0.1,2.7-0.1,3.2c0,0.2-0.1,0.3-0.4,0.3c-0.2,0-0.9,0-1.7,0c-1.1,0-1.6,0-3.3,0c-0.9,0-2.8,0-3.6,0
					c-1.2,0-2.2,0-2.7,0h-0.7c-0.1-0.1-0.1-0.2-0.1-0.3c0-0.1,0-0.3,0.1-0.4C65.7,3,66.6,3,66.9,2.8c0.3-0.2,0.5-0.3,0.7-1.3
					c0-0.4,0.1-1.6,0.1-2.5v-4c0-0.8,0-2,0-2.5c0-0.8-0.3-1.7-0.4-1.9c-0.2-0.1-1-0.3-1.8-0.3c-0.1-0.1-0.1-0.3-0.1-0.4
					c0-0.1,0-0.3,0.1-0.4H66c0.6,0,2.9,0.1,3.5,0.1c0.5,0,1.4,0,2.6,0c0.6,0,2.5-0.1,6.4-0.1c0.2,0,0.3,0,0.5,0
					c0.1,0.1,0.1,0.1,0.1,0.3C79.2-9.7,79.2-8.6,79.2-7 M96.1-0.6v4c0,0.3-0.1,0.4-0.4,0.4c-0.6,0-3.7-0.1-6.8-0.1
					c-2.4,0-4.5,0-5.6,0h-1.5c-0.3,0-0.3-0.1-0.3-0.3v-3.7c0.1-0.1,0.2-0.1,0.3-0.1c0.1,0,0.4,0,0.4,0C83.1,1.4,84,2.4,85,2.9
					C85.6,2.9,86.7,3,87.1,3c0-0.2,0-0.9,0.1-1.7c0-1.4,0-2,0-5.4c0-2.9,0-4.2-0.1-4.5c-0.1-0.5,0-1-2.3-1.1
					c-0.1-0.1-0.1-0.3-0.1-0.4c0-0.1,0-0.2,0-0.3h0.8c0.7,0,2.4,0.1,3.1,0.1c0.6,0,2.4-0.1,3.6-0.1h0.5c0.1,0.1,0.1,0.3,0.1,0.4
					c0,0.1,0,0.3-0.1,0.4c-0.2,0-1.5,0-2,0.4c-0.1,0.2-0.2,0.8-0.2,1.5c0,2.1,0,2.9,0,4.3c0,1.8,0,3.1,0,6.5c0.3,0,0.9,0,1.5,0
					c1.2-0.3,1.8-0.8,2.3-1.5c0.3-0.5,0.7-1.2,1-2.1c0.1,0,0.2,0,0.3,0C95.8-0.7,96-0.6,96.1-0.6 M113.3-3.1c0,2.7-1.2,4.8-3.5,6.1
					c-1.2,0.7-2.4,1-3.7,1c-2.9,0-5.5-1.7-6.6-3.7c-0.7-1.2-1.1-2.5-1.1-4c0-2.3,1.1-4.5,2.8-5.8c1.3-0.9,2.8-1.4,4.5-1.4
					c1,0,2,0.2,3,0.6c1.1,0.4,2,1.1,2.7,1.9C112.6-6.9,113.3-5.1,113.3-3.1 M109.8-2.7c0-3-0.8-5.6-1.9-6.5
					c-0.6-0.5-1.3-0.7-2.1-0.7c-1.1,0-2.1,0.4-2.6,1.3c-0.7,1.1-1.2,3.3-1.2,5.1c0,2.7,0.7,4.9,2,5.9c0.7,0.5,1.4,0.8,2,0.8
					c1.1,0,2.1-0.5,2.7-1.4C109.4,0.8,109.8-0.7,109.8-2.7 M132.3,3.5c0,0.1,0,0.2-0.1,0.3h-0.4c-1,0-1.6,0-3.4,0
					c-0.6,0-1.5,0-1.7,0h-0.5c-0.1,0-0.1-0.3-0.1-0.3c0-0.1,0-0.3,0.1-0.3c0.3-0.1,1.5-0.2,2-0.6c0.4-0.4,0.5-1.2,0.6-2
					c0-0.3,0-0.6,0-1.4v-4.1c0-0.5,0-0.6,0-0.8c-0.3,0.4-0.8,1.1-1.6,2l-6.6,7.3c-0.1,0.1-0.2,0.2-0.3,0.3c-0.2,0-0.4,0-0.6,0
					c-1.3,0-3.5,0.1-3.9,0.1c0-0.1-0.1-0.2-0.1-0.3c0,0,0-0.3,0.1-0.4c0.3-0.1,0.9-0.2,1.5-0.7c0.3-0.4,0.9-0.8,1-1.2
					c0.1-0.1,0.1-0.4,0.1-0.6c0-1-0.1-2.5-0.1-3.8v-4c0-0.6-0.1-1.2-0.1-1.5c-0.4-0.4-1-0.7-2.1-1c0-0.1-0.1-0.3-0.1-0.4
					c0-0.1,0-0.3,0.1-0.3h0.4c0.4,0,1.3,0.1,1.9,0.1c0.9,0,1.5-0.1,2.3-0.1h1.2c0.1,0,0.1,0.3,0.1,0.3c0,0.1,0,0.2-0.1,0.3
					c-0.7,0.2-1.7,0.3-2.4,1.2c-0.1,0.3-0.3,1.7-0.3,2.4c0,0.6,0,1.5,0,2.6c0,1.6,0,2.9,0,3.6c0.1-0.1,0.3-0.3,0.4-0.4l9.1-10.2
					c0.1-0.1,0.4-0.1,0.5-0.1c0.1,0,0.2,0,0.2,0c0,0.1,0.2,0.4,0.2,0.9c0,0.6,0,1.2,0,1.5V0c0,2.5,1.2,3.1,2.5,3.2
					C132.3,3.3,132.3,3.4,132.3,3.5"/>
			</g>
			<g id="g3193" transform="matrix(1.25,0,0,-1.25,268.73333,1344.1781)">
				<path id="path3195" inkscape:connector-curvature="0" class="st0" d="M0,0c0,0.1,0,0.2-0.1,0.3h-0.6c-0.6,0-1.4,0-2.1,0
					c-0.8,0-1.7,0-2.2,0h-0.7C-5.8,0.1-5.8,0.1-5.8,0c0-0.1,0-0.2,0.1-0.3c0.1,0,1.5,0,1.8-0.4c0.2-0.3,0.7-1,0.8-1.5
					c0-0.2,0.2-1,0.2-2.2c0-1.7,0-2.8,0-3.4c0-1.1-0.2-2-0.4-2.6c-0.5-1.7-1.8-2.6-3.8-2.6c-0.9,0-1.6,0.2-2.3,0.5
					c-1.3,0.6-1.9,1.8-1.9,2.5l-0.1,5.9l0,2.4c0,0.5,0.6,0.9,0.8,1.1c0.2,0.1,1,0.2,1.5,0.2C-9.3-0.1-9.2-0.1-9.2,0
					c0,0.1-0.1,0.2-0.1,0.3l-0.7,0c-0.7,0-1.7,0-2.3,0c-0.9,0-1.7,0-2.3,0h-0.8c-0.1-0.1-0.1-0.2-0.1-0.3c0-0.1,0-0.2,0.1-0.2
					c0.6-0.1,1-0.1,1.3-0.2c0.3-0.2,0.6-0.5,0.7-0.9c0-0.3,0.1-0.9,0.1-2.1v-4.7c0-1.2,0.1-2.1,0.2-2.6c0.3-1,0.8-1.8,1.7-2.4
					c1-0.6,2.2-0.9,3.6-0.9c1.3,0,2.4,0.3,3.4,0.8c1,0.5,1.6,1.4,1.9,2.6c0.2,0.7,0.3,1.5,0.3,2.3v3.8c0,0.7,0,1.6,0,1.9
					C-2.3-1.6-2-1-1.7-0.5c0.3,0.1,0.6,0.2,1.6,0.3C0-0.2,0-0.1,0,0 M18.2,0.1c0,0.1,0,0.1-0.1,0.2h-0.5c-1,0-1.4,0-3.2,0
					c-0.6,0-1.5,0-1.7,0h-0.5c-0.1,0-0.1-0.2-0.1-0.3c0-0.1,0-0.1,0.1-0.2c0.3-0.1,1.5-0.2,2-0.6c0.4-0.4,0.5-1.2,0.6-2
					c0-0.3,0-0.6,0-1.4V-10c0-0.5,0-0.6,0-0.8c-0.3,0.4-0.9,1.1-1.7,2L5.7-0.1C5.6,0,5.5,0.1,5.4,0.2c-0.2,0-0.4,0-0.5,0
					c-1.3,0-2.4,0.1-2.7,0.1c0-0.1-0.1-0.1-0.1-0.2c0,0,0-0.2,0-0.3c0.3-0.1,1.2-0.2,1.5-0.6c0.3-0.4,0.8-0.8,1-1.2
					C4.7-2,4.7-2.2,4.7-2.5c0-1-0.1-2.9-0.1-4.3V-11c0-0.6-0.1-1.2-0.1-1.5c-0.4-0.4-1-0.7-2.1-1c0-0.1-0.1-0.1-0.1-0.2
					c0-0.1,0-0.2,0.1-0.2h0.4c0.4,0,1.3,0.1,1.9,0.1c0.9,0,1.3-0.1,2.1-0.1H8c0.1,0,0.1,0.2,0.1,0.3c0,0.1,0,0.1-0.1,0.2
					c-0.7,0.2-1.7,0.3-2.4,1.2c-0.1,0.3-0.3,1.8-0.3,2.5c0,0.6,0,1.6,0,2.8c0,1.6,0,3.7,0,4.4c0.1-0.1,0.3-0.4,0.4-0.5L15.2-14
					c0.1-0.1,0.1-0.1,0.2-0.1c0.1,0,0,0,0.1,0c0,0.1,0.1,0.4,0.1,0.9c0,0.6,0,1.2,0,1.5v8.3c0,2.5,1.2,3.1,2.5,3.2
					C18.2-0.1,18.2,0,18.2,0.1 M27.1-13.6c0,0.1,0,0.2-0.1,0.3c-0.3,0-1.1,0.1-1.5,0.2c-0.3,0.4-0.5,0.8-0.7,1.5c0,0.9,0,3.1,0,4.9
					v5c0,0.5,0.2,0.9,0.4,1.1c0.4,0.4,1.1,0.4,1.7,0.5C27-0.1,27,0,27,0.1c0,0.1-0.1,0.2-0.1,0.2h-0.6c-0.8,0-2-0.1-2.7-0.1
					c-0.4,0-1.6,0.1-2.5,0.1h-0.4c-0.1-0.1-0.1-0.1-0.1-0.3c0-0.1,0-0.2,0-0.3c1-0.1,1.4-0.2,1.5-0.3c0.2-0.2,0.6-0.6,0.7-1.7
					c0-0.4,0-1.4,0.1-3.2c0-1,0-2.3,0-3.5c0-0.6,0-2-0.1-2.7c0-0.5-0.1-0.9-0.3-1.2c-0.2-0.2-0.5-0.5-1.9-0.7c0-0.1-0.1-0.2-0.1-0.3
					c0-0.2,0-0.2,0-0.3h0.3c0.8,0,2,0.1,3,0.1c0.3,0,1.6-0.1,2.2-0.1H27C27-13.8,27.1-13.7,27.1-13.6 M44.2,0.1c0,0.1,0,0.2-0.1,0.2
					h-0.7c-0.5,0-1.2,0-1.6,0c-1.6,0-2.2,0.1-2.4,0.1h-0.4c0-0.1-0.1-0.2-0.1-0.3c0-0.1,0-0.1,0-0.2c0.5-0.1,0.9-0.2,1.4-0.3
					C40.7-0.7,41-1.1,41-1.7c0-0.2-0.2-1.1-0.5-1.8l-3.2-7.8l-3.9,9.8c0.1,0.5,0.3,0.9,0.6,1.1c0.3,0,0.7,0.2,1.3,0.2
					c0,0.1,0.1,0.2,0.1,0.3c0,0.1,0,0.2-0.1,0.2h-0.5c-0.6,0-1.5-0.1-2.6-0.1c-0.5,0-1.3,0-2.2,0h-0.8c0-0.1-0.1-0.1-0.1-0.2
					c0-0.1,0-0.2,0.1-0.2c0.5-0.1,1.1-0.4,1.6-0.7c0.4-0.6,1.2-2.5,1.6-3.6l1.6-3.9c1.4-3.3,2.2-5.4,2.3-5.8c0.1-0.1,0-0.1,0.2-0.1
					s0.2,0,0.2,0.1l5.1,12.2c0.2,0.4,0.5,0.8,0.7,1.1c0.3,0.4,1,0.5,1.6,0.6C44.2-0.1,44.2,0,44.2,0.1 M58.8-10.7c0,0.3,0,0.4,0,0.6
					C58.7-10,58.6-10,58.5-10c-0.1,0-0.1,0-0.3,0c-0.4-1.4-1.2-2.5-2-3c-0.3-0.2-0.8-0.2-1.7-0.2h-2.2c-0.7,0-1.1,0.1-1.3,0.1
					c-0.3,0.1-0.6,0.5-0.7,0.8c-0.1,0.3-0.2,0.5-0.2,1.4v4.5h0.6c0.6,0,1.1,0,1.7-0.3c0.5-0.2,0.9-0.5,1.1-0.8
					c0.2-0.3,0.2-1.4,0.3-1.6c0.1-0.1,0.2-0.1,0.3-0.1c0.2,0,0.2,0,0.3,0.1c0,0.5-0.1,2-0.1,2.7c0,1,0.1,2.2,0.2,2.9
					c-0.1,0-0.1,0.1-0.3,0.1c-0.1,0-0.2,0-0.3-0.1c-0.1-0.3-0.2-1.1-0.3-1.2c-0.3-0.5-1-0.9-1.5-1C51.7-5.9,51.1-6,50.4-6h-0.3V-4
					c0,1.9,0,2.6,0.1,3c0,0.2,0.1,0.5,0.1,0.7c0.2,0,0.7,0,1.7,0c1.1,0,2,0,2.2,0c0.5,0,1-0.2,1.3-0.4c1-0.7,1.2-1.2,1.7-2.4
					c0.1,0,0.1,0,0.2,0c0.1,0,0.1,0,0.3,0.1c0,1.2-0.1,2.6-0.1,3c0,0.2-0.1,0.3-0.5,0.3c-0.2,0-0.9,0-1.7,0c-1.1,0-1.6,0-3.3,0
					c-0.9,0-2.5,0-3.4,0c-1.2,0-1.4,0-1.9,0h-0.7C46,0.2,46,0.1,46,0c0-0.1,0-0.2,0.1-0.3c0.2-0.1,1.2-0.1,1.4-0.2
					c0.3-0.2,0.5-0.3,0.7-1.2c0-0.4,0.1-1.7,0.1-2.7v-4c0-0.8,0-2.2,0-2.7c0-0.8-0.3-1.7-0.4-1.9c-0.2-0.1-1-0.3-1.8-0.3
					c-0.1-0.1-0.1-0.2-0.1-0.3c0-0.1,0-0.2,0.1-0.3h0.7c0.6,0,2.2,0.1,2.7,0.1c0.5,0,1.2,0,2.3,0c0.6,0,2.5-0.1,6.4-0.1
					c0.2,0,0.3,0,0.5,0c0.1,0.1,0.1,0.1,0.1,0.3C58.8-13.2,58.8-12.2,58.8-10.7 M75.3-13.6c0,0.1,0,0.2-0.1,0.3c-0.2,0-1,0-1.3,0.3
					c-0.1,0.1-0.3,0.4-0.3,0.5c-0.3,0.9-0.5,1.7-0.8,2.5c-0.4,1-1,1.9-1.5,2.3c-0.2,0.2-0.7,0.4-1.4,0.6C69.5-7,69.3-6.9,69-6.9
					c0.3,0.1,0.4,0.1,0.8,0.1c1.3,0.2,1.7,0.4,2.1,0.7c0.8,0.6,1.3,1.5,1.3,2.5c0,1.6-1,3.1-2.5,3.6c-0.5,0.1-1.3,0.2-2.4,0.2
					c-1.5,0-2.6-0.1-3.6-0.1c-0.3,0-1.3,0-1.9,0c-0.3,0-1,0-1.2,0c-0.1-0.1-0.1-0.2-0.1-0.3s0-0.2,0-0.3c0.3,0,0.9-0.1,1.3-0.2
					c0.5-0.4,0.6-0.6,0.8-1.1c0.1-0.6,0.1-2.4,0.1-5.2c0-2,0-4.5-0.1-5.3c-0.1-0.5-0.2-1.1-0.8-1.3c-0.3,0-0.7-0.1-1.1-0.1
					c-0.1-0.1-0.1-0.2-0.1-0.3c0-0.1,0-0.1,0.1-0.2c0.3,0,2.5,0.1,3.2,0.1c1.3,0,1.6-0.1,2.7-0.1c0,0.1,0.1,0.1,0.1,0.2
					c0,0.1,0,0.2-0.1,0.3c-0.4,0-0.9,0.2-1.1,0.2c-0.5,0.2-0.8,0.7-0.8,1.4l0,4.9c0.2,0,0.7,0,0.9,0c0.5,0,1.1,0,1.6-0.3
					C69-7.5,69.7-8,70.1-8.8c0.6-1,1-2.8,1.2-4.3c0.1-0.4,0.2-0.8,0.6-0.8c0.2,0,0.4-0.1,1.1-0.1h2C75.2-13.8,75.3-13.7,75.3-13.6
					 M71.1-3.2c0-1.3-1-2.7-2.2-2.9c-0.5-0.1-1.2-0.2-2-0.2c-0.2,0-0.9,0-1.2,0l0,1.7v3.7c0,0.3,0.1,0.4,0.1,0.4
					c0.1,0.1,0.9,0.1,1.4,0.1c1.8,0,2.7-0.2,3.4-1.1C71-1.9,71.1-2.6,71.1-3.2 M88.5-10c0,1.6-0.7,2.6-2.2,3.5
					c-0.4,0.2-1.1,0.5-2.2,0.8c-1.2,0.3-2.2,0.7-2.8,1.1c-0.4,0.2-1.2,0.9-1.2,2.1c0,1.3,1.3,2.3,2.8,2.3c1.2,0,2.1-0.6,2.7-1.4
					c0.5-0.7,0.7-1,1.2-2.2c0.1,0,0.1,0,0.2,0c0.2,0,0.3,0.1,0.4,0.2c-0.1,0.5-0.2,1.2-0.2,1.8c0,0.5,0.1,1.2,0.2,1.5
					c-0.2,0.2-0.3,0.3-0.6,0.3c-0.3-0.2-0.5-0.4-0.8-0.7c-1.3,1-2.4,1.2-3.3,1.2c-2.4,0-4.1-1.6-4.1-3.7c0-0.7,0.3-1.4,0.7-2.2
					c0.4-0.6,1.1-1.1,1.9-1.4c0.6-0.2,3.1-1,3.5-1.1c1.6-0.6,2.2-1.1,2.2-2.5c0-0.7-0.3-1.3-0.9-2c-0.5-0.6-1.3-0.9-2.2-0.9
					c-0.9,0-2.5,0.4-3.3,1.5c-0.5,0.6-1.1,1.9-1.3,2.7c-0.1,0-0.1,0-0.3,0c-0.1,0-0.3,0-0.4-0.1c0-0.3,0.1-1.6,0.1-1.9
					c0-1-0.2-1.4-0.2-1.7c0.1-0.2,0.4-0.4,0.6-0.4c0.4,0.4,0.8,0.6,1,0.6c0.1,0,0.3-0.1,0.5-0.2c1.3-0.8,2.3-1,3.3-1
					C86.5-14.1,88.5-12.7,88.5-10 M98.2-13.6c0,0.1,0,0.2-0.1,0.3c-0.3,0-1.1,0.1-1.5,0.2c-0.3,0.4-0.5,0.8-0.7,1.5
					c0,0.9,0,3.1,0,4.9v5c0,0.5,0.2,0.9,0.4,1.1c0.4,0.4,1.1,0.4,1.7,0.5c0,0.1,0.1,0.2,0.1,0.3c0,0.1-0.1,0.2-0.1,0.2h-0.6
					c-0.8,0-2-0.1-2.7-0.1c-0.4,0-1.6,0.1-2.5,0.1h-0.4c-0.1-0.1-0.1-0.1-0.1-0.3c0-0.1,0-0.2,0-0.3c1-0.1,1.4-0.2,1.5-0.3
					C93.6-0.7,94-1.1,94-2.2c0-0.4,0-1.4,0.1-3.2c0-1,0-2.3,0-3.5c0-0.6,0-2-0.1-2.7c0-0.5-0.1-0.9-0.3-1.2
					c-0.2-0.2-0.5-0.5-1.9-0.7c0-0.1-0.1-0.2-0.1-0.3c0-0.2,0-0.2,0-0.3h0.3c0.8,0,2,0.1,3,0.1c0.3,0,1.6-0.1,2.2-0.1h0.6
					C98.2-13.8,98.2-13.7,98.2-13.6 M114.5-3.9v3.8c0,0.3-0.1,0.4-0.4,0.4c-0.6,0-3.3-0.1-6.4-0.1c-2.4,0-4.1,0-5.2,0h-1.5
					c-0.3,0-0.3-0.1-0.3-0.3v-3.6c0.1-0.1,0.1-0.1,0.2-0.1c0.1,0,0.2,0,0.2,0c0.8,1.7,1.2,2.6,2.5,3.3c0.6,0.1,2.6,0.1,3,0.1
					c0-0.2,0-0.9,0.1-1.7c0-1.4,0-2.2,0-5.5c0-2.9,0-4.4-0.1-4.7c-0.1-0.6,0-1-2.3-1.1c-0.1-0.1-0.1-0.2-0.1-0.3c0-0.1,0-0.2,0-0.2
					h0.8c0.7,0,1.7,0.1,2.4,0.1c0.6,0,1.6-0.1,2.8-0.1h0.5c0.1,0.1,0.1,0.2,0.1,0.3c0,0.1,0,0.2-0.1,0.3c-0.2,0-1.5,0-2,0.4
					c-0.1,0.2-0.2,0.8-0.2,1.5c0,2.1,0,3.1,0,4.5c0,1.8,0,3.2,0,6.6c0.3,0,1.7,0,2.3,0c1.2-0.3,1.7-0.8,2.2-1.5
					c0.5-0.6,0.6-1.2,0.9-2.1c0.1,0,0.2,0,0.3,0C114.4-4,114.5-4,114.5-3.9 M130.4,0.1c0,0.1-0.1,0.2-0.1,0.2
					c-0.8,0-1.9-0.1-2.3-0.1c-1,0-2.2,0.1-2.7,0.1c-0.1-0.1-0.1-0.1-0.1-0.2c0-0.1,0-0.2,0-0.2c0.6-0.1,1.4-0.3,1.6-0.5
					c0.1-0.3,0.2-0.4,0.2-0.8c0-0.2,0-0.5-0.1-0.7c-0.2-0.5-0.5-1.3-1.1-2.3c-0.9-1.8-1.5-3-1.8-3.4c-0.5,0.9-1.6,3.1-1.9,3.7
					l-1.1,2.4c0,0.1-0.1,0.4-0.1,0.5c0,0.3,0,0.4,0.1,0.5c0.2,0.4,0.8,0.4,1.6,0.5c0,0.1,0.1,0.2,0.1,0.3c0,0.1-0.1,0.1-0.1,0.2
					h-0.4c-1.3,0-0.9-0.1-3.2-0.1c-1,0-2.1,0.1-2.3,0.1c-0.1-0.1-0.1-0.2-0.1-0.3c0-0.1,0-0.1,0.1-0.2c1.3-0.3,1.7-0.5,1.8-0.8
					l3.4-6.7c0.3-0.6,0.5-1.1,0.6-1.5c0.1-0.5,0.2-1.4,0.2-2.4c0-0.8-0.3-1.3-0.6-1.5c-0.1-0.1-1.1-0.2-1.6-0.3
					c-0.1-0.1-0.1-0.2-0.1-0.3c0-0.1,0-0.2,0.1-0.2c1,0,2,0,2.6,0c0.4,0,1,0,2.2,0c0.7,0,1.2,0,1.5,0c0,0.1,0.1,0.2,0.1,0.3
					c0,0.1,0,0.2-0.1,0.3c-0.6,0.1-1.5,0.2-1.7,0.4c-0.3,0.3-0.5,0.5-0.5,1.3l-0.2,2.9c0,0.2,0.1,0.4,0.1,0.5
					c0.1,0.2,0.1,0.4,0.2,0.6l3,6c0.3,0.5,0.9,1.1,1.3,1.3c0.3,0.2,0.9,0.3,1.3,0.4C130.3,0,130.4,0,130.4,0.1"/>
			</g>
		</g>
	</g>
</g>
</svg>
